<svg width="18" height="11" viewBox="0 0 18 11" fill="none" xmlns="http://www.w3.org/2000/svg">
<path d="M14.3413 10.2955L17.2806 7.35625C17.7579 6.85611 18.0242 6.19134 18.0242 5.5C18.0242 4.80867 17.7579 4.1439 17.2806 3.64375L14.3413 0.704499C14.1304 0.493453 13.8442 0.374849 13.5459 0.374779C13.2475 0.374708 12.9613 0.493178 12.7502 0.704125C12.5392 0.915071 12.4206 1.20122 12.4205 1.49961C12.4204 1.798 12.5389 2.0842 12.7498 2.29525L14.8348 4.381L1.14734 4.39825C0.84897 4.39825 0.562822 4.51678 0.351844 4.72776C0.140865 4.93873 0.0223389 5.22488 0.0223389 5.52325C0.0223389 5.82162 0.140865 6.10777 0.351844 6.31875C0.562822 6.52973 0.84897 6.64825 1.14734 6.64825L14.8206 6.631L12.7498 8.70475C12.5449 8.91693 12.4315 9.20111 12.4341 9.49608C12.4366 9.79105 12.555 10.0732 12.7635 10.2818C12.9721 10.4904 13.2543 10.6087 13.5493 10.6113C13.8442 10.6138 14.1284 10.5004 14.3406 10.2955H14.3413Z" fill="#1A2641"/>
</svg>
