<svg width="24" height="25" viewBox="0 0 24 25" fill="none" xmlns="http://www.w3.org/2000/svg">
<g id="fi-br-arrow-small-left">
<path id="Vector" d="M19 11H10.207L12.646 8.561C12.9274 8.27973 13.0855 7.89821 13.0856 7.50035C13.0857 7.10249 12.9277 6.72089 12.6465 6.4395C12.3652 6.1581 11.9837 5.99996 11.5858 5.99987C11.188 5.99978 10.8064 6.15774 10.525 6.439L6.93896 10.025C6.28373 10.682 5.91577 11.5721 5.91577 12.5C5.91577 13.4279 6.28373 14.318 6.93896 14.975L10.525 18.561C10.8064 18.8423 11.188 19.0002 11.5858 19.0001C11.9837 19 12.3652 18.8419 12.6465 18.5605C12.9277 18.2791 13.0857 17.8975 13.0856 17.4996C13.0855 17.1018 12.9274 16.7203 12.646 16.439L10.207 14H19C19.3978 14 19.7793 13.842 20.0606 13.5607C20.3419 13.2794 20.5 12.8978 20.5 12.5C20.5 12.1022 20.3419 11.7206 20.0606 11.4393C19.7793 11.158 19.3978 11 19 11Z" fill="#1A2641"/>
</g>
</svg>
