<svg width="21" height="21" viewBox="0 0 21 21" fill="none" xmlns="http://www.w3.org/2000/svg">
<g id="fi-br-bell" clip-path="url(#clip0_12_1145)">
<path id="Vector" d="M18.9083 11.4508L17.4483 6.20585C16.9774 4.51581 15.9551 3.03162 14.544 1.98909C13.133 0.946564 11.4139 0.405493 9.66011 0.451843C7.90629 0.498193 6.21825 1.12931 4.86419 2.24491C3.51013 3.36052 2.56771 4.89662 2.18667 6.60918L1.05834 11.6834C0.909484 12.3533 0.912965 13.0481 1.06852 13.7165C1.22408 14.3849 1.52775 15.0098 1.95712 15.5451C2.38648 16.0805 2.93058 16.5126 3.54927 16.8095C4.16795 17.1065 4.84542 17.2607 5.53167 17.2608H5.86501C6.1302 18.1779 6.68621 18.984 7.44928 19.5577C8.21235 20.1314 9.14117 20.4416 10.0958 20.4416C11.0505 20.4416 11.9793 20.1314 12.7424 19.5577C13.5055 18.984 14.0615 18.1779 14.3267 17.2608H14.4875C15.1941 17.2609 15.8912 17.0976 16.5242 16.7837C17.1573 16.4698 17.7092 16.0138 18.1368 15.4512C18.5644 14.8887 18.8562 14.2349 18.9893 13.541C19.1224 12.847 19.0933 12.1317 18.9042 11.4508H18.9083ZM16.1508 13.9375C15.9574 14.1944 15.7067 14.4025 15.4187 14.5455C15.1306 14.6884 14.8132 14.7621 14.4917 14.7608H5.53167C5.21976 14.7608 4.91185 14.6907 4.63065 14.5557C4.34945 14.4207 4.10214 14.2244 3.90698 13.981C3.71182 13.7377 3.57378 13.4537 3.50306 13.1499C3.43233 12.8461 3.43072 12.5303 3.49834 12.2259L4.62667 7.14252C4.88577 5.97258 5.52879 4.92293 6.45338 4.16067C7.37796 3.39842 8.53097 2.96736 9.72885 2.93612C10.9267 2.90487 12.1006 3.27525 13.0637 3.98828C14.0268 4.70131 14.7236 5.71601 15.0433 6.87085L16.5 12.1159C16.5879 12.4257 16.6021 12.7518 16.5415 13.0681C16.4808 13.3844 16.3471 13.6821 16.1508 13.9375Z" fill="#1A2641"/>
</g>
<defs>
<clipPath id="clip0_12_1145">
<rect width="20" height="20" fill="white" transform="translate(0.11499 0.442495)"/>
</clipPath>
</defs>
</svg>
