<svg width="18" height="18" viewBox="0 0 18 18" fill="none" xmlns="http://www.w3.org/2000/svg">
<g id="fi-br-browser" clip-path="url(#clip0_54_22)">
<path id="Vector" d="M3.75 8.62497C3.75 8.3266 3.86853 8.04045 4.0795 7.82947C4.29048 7.6185 4.57663 7.49997 4.875 7.49997H13.125C13.4234 7.49997 13.7095 7.6185 13.9205 7.82947C14.1315 8.04045 14.25 8.3266 14.25 8.62497C14.25 8.92334 14.1315 9.20949 13.9205 9.42046C13.7095 9.63144 13.4234 9.74997 13.125 9.74997H4.875C4.57663 9.74997 4.29048 9.63144 4.0795 9.42046C3.86853 9.20949 3.75 8.92334 3.75 8.62497ZM4.875 13.5H10.125C10.4234 13.5 10.7095 13.3814 10.9205 13.1705C11.1315 12.9595 11.25 12.6733 11.25 12.375C11.25 12.0766 11.1315 11.7905 10.9205 11.5795C10.7095 11.3685 10.4234 11.25 10.125 11.25H4.875C4.57663 11.25 4.29048 11.3685 4.0795 11.5795C3.86853 11.7905 3.75 12.0766 3.75 12.375C3.75 12.6733 3.86853 12.9595 4.0795 13.1705C4.29048 13.3814 4.57663 13.5 4.875 13.5ZM18 4.87497V13.125C17.9988 14.2186 17.5638 15.2671 16.7905 16.0405C16.0172 16.8138 14.9687 17.2488 13.875 17.25H4.125C3.03135 17.2488 1.98283 16.8138 1.2095 16.0405C0.436171 15.2671 0.00119113 14.2186 0 13.125L0 4.87497C0.00119113 3.78132 0.436171 2.7328 1.2095 1.95947C1.98283 1.18614 3.03135 0.751161 4.125 0.749969H13.875C14.9687 0.751161 16.0172 1.18614 16.7905 1.95947C17.5638 2.7328 17.9988 3.78132 18 4.87497ZM6 3.37497C6 3.59747 6.06598 3.81498 6.1896 3.99999C6.31321 4.18499 6.48891 4.32919 6.69448 4.41433C6.90005 4.49948 7.12625 4.52176 7.34448 4.47835C7.56271 4.43494 7.76316 4.3278 7.9205 4.17046C8.07783 4.01313 8.18498 3.81267 8.22838 3.59445C8.27179 3.37622 8.24951 3.15002 8.16436 2.94445C8.07922 2.73888 7.93502 2.56318 7.75002 2.43957C7.56501 2.31595 7.3475 2.24997 7.125 2.24997C6.82663 2.24997 6.54048 2.3685 6.3295 2.57947C6.11853 2.79045 6 3.0766 6 3.37497ZM2.25 3.37497C2.25 3.59747 2.31598 3.81498 2.4396 3.99999C2.56321 4.18499 2.73891 4.32919 2.94448 4.41433C3.15005 4.49948 3.37625 4.52176 3.59448 4.47835C3.81271 4.43494 4.01316 4.3278 4.1705 4.17046C4.32783 4.01313 4.43498 3.81267 4.47838 3.59445C4.52179 3.37622 4.49951 3.15002 4.41436 2.94445C4.32922 2.73888 4.18502 2.56318 4.00002 2.43957C3.81501 2.31595 3.5975 2.24997 3.375 2.24997C3.07663 2.24997 2.79048 2.3685 2.5795 2.57947C2.36853 2.79045 2.25 3.0766 2.25 3.37497ZM15.75 5.99997H2.25V13.125C2.25 13.6223 2.44754 14.0992 2.79917 14.4508C3.15081 14.8024 3.62772 15 4.125 15H13.875C14.3723 15 14.8492 14.8024 15.2008 14.4508C15.5525 14.0992 15.75 13.6223 15.75 13.125V5.99997Z" fill="white"/>
</g>
<defs>
<clipPath id="clip0_54_22">
<rect width="18" height="18" fill="white"/>
</clipPath>
</defs>
</svg>
