<svg width="16" height="16" viewBox="0 0 16 16" fill="none" xmlns="http://www.w3.org/2000/svg">
<g clip-path="url(#clip0_646_80)">
<path d="M11.6667 16C6.23401 16.1534 -3.38465 6.52338 1.24201 1.29205C1.25868 1.27605 1.96935 0.656051 1.96935 0.656051C2.4093 0.230744 2.99871 -0.00471828 3.61061 0.000394355C4.2225 0.00550699 4.8079 0.250785 5.24068 0.683384L6.67601 2.22938C7.09842 2.671 7.332 3.25991 7.32714 3.87099C7.32229 4.48208 7.07938 5.0672 6.65001 5.50205L6.39068 5.76472C7.1615 7.47062 8.52493 8.83903 10.228 9.61605L10.5013 9.34938C10.9456 8.92581 11.5359 8.68951 12.1497 8.68951C12.7635 8.68951 13.3538 8.92581 13.798 9.34938L15.29 10.7334C15.7326 11.1645 15.9867 11.7531 15.9968 12.3709C16.007 12.9887 15.7723 13.5854 15.344 14.0307C15.344 14.0307 14.724 14.7421 14.708 14.7587C14.3082 15.1563 13.8336 15.4707 13.3116 15.6838C12.7896 15.8969 12.2305 16.0044 11.6667 16ZM2.63335 2.73338C-0.606652 6.74472 9.76201 16.5154 13.27 13.3667C13.27 13.3667 13.886 12.6607 13.9027 12.644C13.935 12.614 13.9608 12.5776 13.9785 12.5371C13.9961 12.4966 14.0052 12.4529 14.0052 12.4087C14.0052 12.3646 13.9961 12.3209 13.9785 12.2804C13.9608 12.2399 13.935 12.2035 13.9027 12.1734L12.4107 10.7907C12.2107 10.6241 12.0987 10.6221 11.912 10.7641L11.1553 11.5087C11.0187 11.6431 10.8464 11.7354 10.6588 11.7746C10.4713 11.8139 10.2764 11.7984 10.0973 11.7301C8.76717 11.2353 7.55892 10.4603 6.55452 9.45763C5.55012 8.45496 4.77306 7.24805 4.27601 5.91872C4.20345 5.73822 4.18511 5.54048 4.22324 5.34972C4.26137 5.15895 4.35431 4.98345 4.49068 4.84472L5.23001 4.09338C5.26371 4.06368 5.2908 4.02724 5.30955 3.98642C5.32829 3.9456 5.33827 3.9013 5.33883 3.85638C5.3394 3.81147 5.33054 3.76693 5.31283 3.72565C5.29512 3.68437 5.26895 3.64726 5.23601 3.61672L3.80001 2.07072C3.73561 2.01934 3.65446 1.99364 3.57223 1.99857C3.48999 2.00349 3.41249 2.03869 3.35468 2.09738C3.33935 2.11405 2.63335 2.73338 2.63335 2.73338ZM15.7667 7.28872C16.0496 6.31011 16.0649 5.27352 15.811 4.28699C15.5571 3.30046 15.0432 2.40009 14.3229 1.67973C13.6026 0.959372 12.7023 0.445388 11.7157 0.19135C10.7292 -0.0626877 9.69265 -0.0474815 8.71401 0.235384C8.58816 0.272942 8.47094 0.33492 8.36905 0.41778C8.26715 0.50064 8.18257 0.602759 8.12014 0.718306C8.05771 0.833853 8.01864 0.960565 8.00518 1.09121C7.99172 1.22185 8.00412 1.35387 8.04168 1.47972C8.07924 1.60557 8.14122 1.72279 8.22408 1.82469C8.30694 1.92658 8.40906 2.01116 8.5246 2.07359C8.64015 2.13603 8.76686 2.17509 8.89751 2.18855C9.02815 2.20201 9.16016 2.18961 9.28601 2.15205C9.91886 1.97113 10.5886 1.96277 11.2258 2.12785C11.8629 2.29293 12.4443 2.62543 12.9097 3.09088C13.3751 3.55633 13.7075 4.13779 13.8725 4.77498C14.0375 5.41217 14.029 6.08189 13.848 6.71472C13.8105 6.84061 13.7982 6.97266 13.8117 7.10332C13.8253 7.23398 13.8644 7.36069 13.927 7.47621C13.9895 7.59174 14.0742 7.69381 14.1761 7.7766C14.2781 7.85939 14.3954 7.92127 14.5213 7.95872C14.6142 7.9861 14.7105 8.00002 14.8073 8.00005C15.0226 7.99981 15.232 7.93014 15.4045 7.80139C15.5769 7.67263 15.7033 7.49167 15.7647 7.28538L15.7667 7.28872ZM12.0427 7.37738C12.1356 7.28452 12.2093 7.17425 12.2596 7.05288C12.3099 6.93151 12.3358 6.80143 12.3358 6.67005C12.3358 6.53867 12.3099 6.40859 12.2596 6.28722C12.2093 6.16585 12.1356 6.05558 12.0427 5.96272L11.3333 5.25272V4.33338C11.3333 4.06817 11.228 3.81381 11.0405 3.62628C10.8529 3.43874 10.5986 3.33338 10.3333 3.33338C10.0681 3.33338 9.81378 3.43874 9.62624 3.62628C9.4387 3.81381 9.33335 4.06817 9.33335 4.33338V5.66672C9.33329 5.79806 9.3591 5.92813 9.40932 6.0495C9.45954 6.17086 9.53317 6.28115 9.62601 6.37405L10.626 7.37405C10.7189 7.46698 10.8291 7.54069 10.9505 7.59099C11.0719 7.64128 11.202 7.66717 11.3333 7.66717C11.4647 7.66717 11.5948 7.64128 11.7162 7.59099C11.8375 7.54069 11.9478 7.46698 12.0407 7.37405L12.0427 7.37738Z" fill="#1A2641"/>
</g>
<defs>
<clipPath id="clip0_646_80">
<rect width="16" height="16" fill="white"/>
</clipPath>
</defs>
</svg>
