<svg width="30" height="30" viewBox="0 0 30 30" fill="none" xmlns="http://www.w3.org/2000/svg">
<g id="fi-br-sunrise" clip-path="url(#clip0_7_949)">
<path id="Vector" d="M1.15675 21.8348C2.12869 22.366 3.23057 22.613 4.3363 22.5473C5.44203 22.4816 6.50693 22.106 7.40913 21.4633C7.48147 21.408 7.57001 21.378 7.66108 21.378C7.75215 21.378 7.84069 21.408 7.91303 21.4633C8.93048 22.1677 10.1385 22.545 11.376 22.545C12.6134 22.545 13.8215 22.1677 14.8389 21.4633C14.9112 21.4083 14.9995 21.3785 15.0903 21.3785C15.1811 21.3785 15.2694 21.4083 15.3416 21.4633C16.3588 22.1671 17.5664 22.5442 18.8033 22.5442C20.0403 22.5442 21.2478 22.1671 22.265 21.4633C22.3373 21.4073 22.4262 21.3769 22.5176 21.3769C22.6091 21.3769 22.6979 21.4073 22.7702 21.4633C23.6676 22.117 24.7337 22.4994 25.8419 22.5653C26.9502 22.6311 28.0541 22.3776 29.0226 21.8348C29.4484 21.5872 29.7585 21.1805 29.8846 20.7043C30.0107 20.2281 29.9424 19.7213 29.6948 19.2954C29.4473 18.8695 29.0406 18.5595 28.5644 18.4334C28.0882 18.3073 27.5814 18.3756 27.1555 18.6231C26.8035 18.8024 26.4085 18.88 26.0148 18.8472C25.6211 18.8144 25.2444 18.6725 24.9269 18.4374C24.2242 17.9397 23.3843 17.6724 22.5232 17.6724C21.662 17.6724 20.8221 17.9397 20.1194 18.4374C19.7351 18.7052 19.2779 18.8487 18.8095 18.8487C18.3411 18.8487 17.884 18.7052 17.4996 18.4374C16.7974 17.9379 15.957 17.6694 15.0952 17.6694C14.2334 17.6694 13.3931 17.9379 12.6908 18.4374C12.3065 18.7058 11.8491 18.8497 11.3803 18.8497C10.9116 18.8497 10.4541 18.7058 10.0698 18.4374C9.36707 17.9397 8.52717 17.6724 7.66603 17.6724C6.8049 17.6724 5.96499 17.9397 5.26227 18.4374C4.94452 18.6751 4.56625 18.8185 4.17079 18.8511C3.77533 18.8837 3.37868 18.8043 3.02627 18.6219C2.5994 18.3747 2.09179 18.3071 1.61511 18.4341C1.13842 18.5611 0.731719 18.8723 0.484462 19.2991C0.237204 19.726 0.169648 20.2336 0.296655 20.7103C0.423662 21.187 0.734828 21.5937 1.1617 21.8409L1.15675 21.8348Z" fill="#1639FF"/>
<path id="Vector_2" d="M27.0691 25.8946C26.7167 26.0768 26.3202 26.1562 25.9248 26.1238C25.5294 26.0914 25.1511 25.9485 24.8331 25.7114C24.1312 25.2122 23.2912 24.944 22.4299 24.944C21.5686 24.944 20.7287 25.2122 20.0268 25.7114C19.642 25.9792 19.1844 26.1227 18.7157 26.1227C18.2469 26.1227 17.7893 25.9792 17.4045 25.7114C16.7025 25.2119 15.8623 24.9435 15.0007 24.9435C14.1392 24.9435 13.299 25.2119 12.597 25.7114C12.2124 25.9792 11.7551 26.1228 11.2865 26.1228C10.8178 26.1228 10.3605 25.9792 9.97594 25.7114C9.27392 25.2119 8.43375 24.9435 7.57218 24.9435C6.71061 24.9435 5.87043 25.2119 5.16841 25.7114C4.85067 25.9491 4.47239 26.0924 4.07693 26.1251C3.68147 26.1577 3.28482 26.0783 2.93241 25.8959C2.50571 25.6486 1.99825 25.581 1.52169 25.7079C1.04512 25.8348 0.63848 26.1458 0.391223 26.5725C0.143965 26.9992 0.0763437 27.5066 0.203234 27.9832C0.330125 28.4598 0.641134 28.8664 1.06784 29.1137C2.03983 29.6448 3.14169 29.8917 4.24738 29.826C5.35308 29.7603 6.41796 29.3847 7.32022 28.7422C7.39246 28.6872 7.48075 28.6574 7.57156 28.6574C7.66236 28.6574 7.75066 28.6872 7.82289 28.7422C8.84034 29.4466 10.0484 29.8239 11.2858 29.8239C12.5233 29.8239 13.7313 29.4466 14.7488 28.7422C14.8212 28.6871 14.9097 28.6573 15.0007 28.6573C15.0918 28.6573 15.1803 28.6871 15.2527 28.7422C16.2697 29.4478 17.4779 29.8258 18.7157 29.8258C19.9534 29.8258 21.1616 29.4478 22.1786 28.7422C22.2507 28.6868 22.339 28.6568 22.4299 28.6568C22.5208 28.6568 22.6092 28.6868 22.6813 28.7422C23.5784 29.3954 24.6441 29.7775 25.7518 29.8434C26.8596 29.9092 27.963 29.656 28.9312 29.1137C29.358 28.8674 29.6696 28.4616 29.7973 27.9857C29.925 27.5097 29.8584 27.0025 29.6121 26.5756C29.3659 26.1487 28.9601 25.8371 28.4841 25.7094C28.0081 25.5817 27.5009 25.6484 27.074 25.8946H27.0691Z" fill="#1639FF"/>
<path id="Vector_3" d="M4.47607 15H7.81893C8.4784 15.0005 9.11831 14.776 9.63292 14.3636C10.1475 13.9512 10.506 13.3756 10.6492 12.7318C10.8739 11.7449 11.4271 10.8637 12.2183 10.2324C13.0094 9.60117 13.9915 9.25737 15.0036 9.25737C16.0157 9.25737 16.9978 9.60117 17.7889 10.2324C18.5801 10.8637 19.1333 11.7449 19.358 12.7318C19.5007 13.3744 19.858 13.9492 20.3711 14.3615C20.8843 14.7739 21.5226 14.999 22.1808 15H25.5237C26.0162 15 26.4886 14.8043 26.8369 14.4561C27.1852 14.1078 27.3808 13.6354 27.3808 13.1429C27.3808 12.6503 27.1852 12.1779 26.8369 11.8297C26.4886 11.4814 26.0162 11.2857 25.5237 11.2857H22.8123C22.5599 10.4664 22.1797 9.6921 21.6856 8.99152L24.1271 6.55C24.4753 6.2016 24.6709 5.72914 24.6708 5.23656C24.6707 4.74397 24.4749 4.27161 24.1265 3.92338C23.7781 3.57515 23.3056 3.37958 22.8131 3.3797C22.3205 3.37981 21.8481 3.5756 21.4999 3.924L18.9073 6.51657C18.2619 6.16688 17.5722 5.90577 16.857 5.74028V2C16.857 1.50745 16.6614 1.03508 16.3131 0.686797C15.9648 0.338515 15.4924 0.142853 14.9999 0.142853C14.5073 0.142853 14.035 0.338515 13.6867 0.686797C13.3384 1.03508 13.1427 1.50745 13.1427 2V5.74028C12.4273 5.90561 11.7373 6.16629 11.0912 6.51533L8.49988 3.924C8.15165 3.5756 7.67928 3.37981 7.1867 3.3797C6.69411 3.37958 6.22165 3.57515 5.87326 3.92338C5.52487 4.27161 5.32908 4.74397 5.32896 5.23656C5.32884 5.72914 5.52441 6.2016 5.87264 6.55L8.31416 8.99028C7.81937 9.69108 7.43868 10.4658 7.18626 11.2857H4.47607C3.98352 11.2857 3.51115 11.4814 3.16287 11.8297C2.81459 12.1779 2.61893 12.6503 2.61893 13.1429C2.61893 13.6354 2.81459 14.1078 3.16287 14.4561C3.51115 14.8043 3.98352 15 4.47607 15Z" fill="#1639FF"/>
</g>
<defs>
<clipPath id="clip0_7_949">
<rect width="29.7143" height="29.7143" fill="white" transform="translate(0.142853 0.14286)"/>
</clipPath>
</defs>
</svg>
