<svg width="26" height="25" viewBox="0 0 26 25" fill="none" xmlns="http://www.w3.org/2000/svg">
<g clip-path="url(#clip0_570_157)">
<path d="M0.887162 18.2504C1.73761 18.6974 2.70176 18.9051 3.66927 18.8499C4.63678 18.7946 5.56857 18.4786 6.358 17.9379C6.42129 17.8913 6.49877 17.8661 6.57845 17.8661C6.65814 17.8661 6.73561 17.8913 6.79891 17.9379C7.68918 18.5305 8.74622 18.848 9.829 18.848C10.9118 18.848 11.9688 18.5305 12.8591 17.9379C12.9223 17.8916 12.9995 17.8665 13.079 17.8665C13.1584 17.8665 13.2357 17.8916 13.2989 17.9379C14.189 18.53 15.2456 18.8472 16.3279 18.8472C17.4102 18.8472 18.4669 18.53 19.3569 17.9379C19.4202 17.8908 19.4979 17.8652 19.5779 17.8652C19.6579 17.8652 19.7357 17.8908 19.7989 17.9379C20.5841 18.4878 21.517 18.8096 22.4867 18.865C23.4564 18.9204 24.4223 18.7071 25.2697 18.2504C25.6424 18.0421 25.9137 17.7 26.024 17.2993C26.1344 16.8986 26.0746 16.4723 25.858 16.1139C25.6414 15.7556 25.2856 15.4947 24.8689 15.3886C24.4522 15.2826 24.0087 15.34 23.6361 15.5483C23.3281 15.6992 22.9824 15.7644 22.638 15.7368C22.2935 15.7092 21.9639 15.5898 21.6861 15.3921C21.0712 14.9733 20.3363 14.7484 19.5828 14.7484C18.8293 14.7484 18.0944 14.9733 17.4795 15.3921C17.1432 15.6173 16.7432 15.7381 16.3333 15.7381C15.9235 15.7381 15.5235 15.6173 15.1872 15.3921C14.5727 14.9717 13.8374 14.7459 13.0833 14.7459C12.3293 14.7459 11.5939 14.9717 10.9795 15.3921C10.6432 15.6178 10.2429 15.7389 9.83279 15.7389C9.42264 15.7389 9.02237 15.6178 8.68608 15.3921C8.0712 14.9733 7.33628 14.7484 6.58279 14.7484C5.82929 14.7484 5.09438 14.9733 4.4795 15.3921C4.20147 15.592 3.87048 15.7126 3.52445 15.7401C3.17842 15.7675 2.83135 15.7007 2.523 15.5473C2.14948 15.3392 1.70532 15.2824 1.28823 15.3893C0.871129 15.4961 0.515262 15.7579 0.298912 16.1171C0.0825615 16.4762 0.0234498 16.9033 0.134581 17.3043C0.245712 17.7054 0.517982 18.0476 0.891495 18.2556L0.887162 18.2504Z" fill="#1639FF"/>
<path d="M23.5602 21.6662C23.2518 21.8194 22.9049 21.8862 22.559 21.8589C22.213 21.8317 21.882 21.7115 21.6037 21.512C20.9895 21.092 20.2546 20.8663 19.5009 20.8663C18.7473 20.8663 18.0124 21.092 17.3982 21.512C17.0615 21.7373 16.6611 21.858 16.251 21.858C15.8408 21.858 15.4404 21.7373 15.1037 21.512C14.4894 21.0918 13.7543 20.866 13.0004 20.866C12.2465 20.866 11.5114 21.0918 10.8971 21.512C10.5606 21.7373 10.1605 21.8581 9.75041 21.8581C9.34037 21.8581 8.94017 21.7373 8.6037 21.512C7.98944 21.0918 7.25428 20.866 6.50041 20.866C5.74654 20.866 5.01138 21.0918 4.39712 21.512C4.11909 21.712 3.7881 21.8326 3.44207 21.86C3.09604 21.8875 2.74897 21.8206 2.44062 21.6672C2.06725 21.4592 1.62323 21.4023 1.20623 21.509C0.789236 21.6158 0.433426 21.8775 0.217076 22.2365C0.000725282 22.5955 -0.0584434 23.0224 0.0525859 23.4234C0.163615 23.8243 0.435748 24.1665 0.809117 24.3745C1.6596 24.8214 2.62373 25.0291 3.59121 24.9738C4.5587 24.9185 5.49047 24.6025 6.27995 24.062C6.34316 24.0157 6.42041 23.9906 6.49987 23.9906C6.57932 23.9906 6.65658 24.0157 6.71978 24.062C7.61005 24.6546 8.66709 24.9721 9.74987 24.9721C10.8326 24.9721 11.8897 24.6546 12.78 24.062C12.8433 24.0156 12.9208 23.9905 13.0004 23.9905C13.0801 23.9905 13.1575 24.0156 13.2209 24.062C14.1107 24.6556 15.1679 24.9737 16.251 24.9737C17.334 24.9737 18.3912 24.6556 19.281 24.062C19.3441 24.0154 19.4214 23.9901 19.5009 23.9901C19.5805 23.9901 19.6578 24.0154 19.7209 24.062C20.5059 24.6115 21.4383 24.933 22.4076 24.9884C23.3769 25.0438 24.3424 24.8307 25.1895 24.3745C25.563 24.1673 25.8357 23.8259 25.9474 23.4254C26.0591 23.025 26.0009 22.5982 25.7854 22.2391C25.5699 21.8799 25.2148 21.6178 24.7984 21.5104C24.3819 21.4029 23.938 21.459 23.5645 21.6662H23.5602Z" fill="#1639FF"/>
<path d="M3.79156 12.5H6.71656C7.2936 12.5004 7.85353 12.3115 8.30381 11.9646C8.7541 11.6176 9.06779 11.1333 9.19306 10.5917C9.38966 9.76136 9.87374 9.01991 10.566 8.48881C11.2582 7.9577 12.1176 7.66845 13.0031 7.66845C13.8887 7.66845 14.7481 7.9577 15.4403 8.48881C16.1326 9.01991 16.6166 9.76136 16.8132 10.5917C16.9381 11.1323 17.2508 11.6159 17.6998 11.9628C18.1487 12.3097 18.7073 12.4992 19.2832 12.5H22.2082C22.6392 12.5 23.0525 12.3354 23.3573 12.0423C23.662 11.7493 23.8332 11.3519 23.8332 10.9375C23.8332 10.5231 23.662 10.1257 23.3573 9.83263C23.0525 9.53961 22.6392 9.37499 22.2082 9.37499H19.8357C19.615 8.68565 19.2822 8.03421 18.8499 7.44478L20.9862 5.39061C21.2909 5.09749 21.4621 4.69999 21.462 4.28555C21.4618 3.87112 21.2905 3.4737 20.9857 3.18071C20.6808 2.88773 20.2674 2.72319 19.8364 2.72329C19.4054 2.72339 18.9921 2.88812 18.6874 3.18123L16.4189 5.36248C15.8541 5.06828 15.2507 4.8486 14.6249 4.70936V1.56248C14.6249 1.14808 14.4537 0.750656 14.1489 0.45763C13.8442 0.164605 13.4309 -1.52588e-05 12.9999 -1.52588e-05C12.5689 -1.52588e-05 12.1556 0.164605 11.8508 0.45763C11.5461 0.750656 11.3749 1.14808 11.3749 1.56248V4.70936C10.7489 4.84846 10.1451 5.06778 9.57981 5.36144L7.3124 3.18123C7.0077 2.88812 6.59438 2.72339 6.16336 2.72329C5.73235 2.72319 5.31895 2.88773 5.01411 3.18071C4.70926 3.4737 4.53795 3.87112 4.53784 4.28555C4.53774 4.69999 4.70886 5.09749 5.01356 5.39061L7.1499 7.44374C6.71695 8.03335 6.38385 8.68517 6.16298 9.37499H3.79156C3.36059 9.37499 2.94726 9.53961 2.64252 9.83263C2.33777 10.1257 2.16656 10.5231 2.16656 10.9375C2.16656 11.3519 2.33777 11.7493 2.64252 12.0423C2.94726 12.3354 3.36059 12.5 3.79156 12.5Z" fill="#1639FF"/>
</g>
<defs>
<clipPath id="clip0_570_157">
<rect width="26" height="25" fill="white"/>
</clipPath>
</defs>
</svg>
