<svg width="14" height="15" viewBox="0 0 14 15" fill="none" xmlns="http://www.w3.org/2000/svg">
<g id="fi-br-upload" clip-path="url(#clip0_14_634)">
<g id="Group">
<path id="Vector" d="M4.52683 4.37996L6.14901 2.75721L6.16126 10.7089C6.16126 11.1921 6.553 11.5838 7.03622 11.5838C7.51945 11.5838 7.91119 11.1921 7.91119 10.7089L7.89894 2.76713L9.51179 4.37999C9.84751 4.72757 10.4014 4.73719 10.749 4.40148C11.0966 4.06577 11.1062 3.51186 10.7705 3.16428C10.7634 3.15698 10.7563 3.14982 10.749 3.14279L8.87539 1.2692C7.85032 0.244094 6.18833 0.244094 5.16323 1.26917L5.1632 1.2692L3.28964 3.14276C2.95392 3.49034 2.96355 4.04425 3.31113 4.37996C3.6502 4.70744 4.18776 4.70744 4.52683 4.37996Z" fill="#374957"/>
<path id="Vector_2" d="M13.1247 8.9585C12.6415 8.9585 12.2498 9.35023 12.2498 9.83346V12.5114C12.2495 12.643 12.1428 12.7497 12.0112 12.75H1.9888C1.85717 12.7496 1.75054 12.643 1.75024 12.5114V9.83346C1.75024 9.35023 1.3585 8.9585 0.875275 8.9585C0.39205 8.9585 0.000312805 9.35023 0.000312805 9.83346V12.5114C0.00159791 13.6091 0.891134 14.4986 1.9888 14.4999H12.0112C13.1089 14.4986 13.9984 13.6091 13.9997 12.5114V9.83346C13.9997 9.35023 13.608 8.9585 13.1247 8.9585Z" fill="#374957"/>
</g>
</g>
<defs>
<clipPath id="clip0_14_634">
<rect width="14" height="14" fill="white" transform="translate(0 0.5)"/>
</clipPath>
</defs>
</svg>
