<svg width="20" height="21" viewBox="0 0 20 21" fill="none" xmlns="http://www.w3.org/2000/svg">
<g clip-path="url(#clip0_578_22)">
<path d="M1.25 5.5H18.75C19.0815 5.5 19.3995 5.3683 19.6339 5.13388C19.8683 4.89946 20 4.58152 20 4.25C20 3.91848 19.8683 3.60054 19.6339 3.36612C19.3995 3.1317 19.0815 3 18.75 3H1.25C0.918479 3 0.600537 3.1317 0.366116 3.36612C0.131696 3.60054 0 3.91848 0 4.25C0 4.58152 0.131696 4.89946 0.366116 5.13388C0.600537 5.3683 0.918479 5.5 1.25 5.5Z" fill="white"/>
<path d="M1.25 9.66669H12.0833C12.4149 9.66669 12.7328 9.53499 12.9672 9.30057C13.2016 9.06615 13.3333 8.74821 13.3333 8.41669C13.3333 8.08517 13.2016 7.76722 12.9672 7.5328C12.7328 7.29838 12.4149 7.16669 12.0833 7.16669H1.25C0.918479 7.16669 0.600537 7.29838 0.366116 7.5328C0.131696 7.76722 0 8.08517 0 8.41669C0 8.74821 0.131696 9.06615 0.366116 9.30057C0.600537 9.53499 0.918479 9.66669 1.25 9.66669Z" fill="white"/>
<path d="M12.0833 15.5H1.25C0.918479 15.5 0.600537 15.6317 0.366116 15.8661C0.131696 16.1005 0 16.4185 0 16.75C0 17.0815 0.131696 17.3995 0.366116 17.6339C0.600537 17.8683 0.918479 18 1.25 18H12.0833C12.4149 18 12.7328 17.8683 12.9672 17.6339C13.2016 17.3995 13.3333 17.0815 13.3333 16.75C13.3333 16.4185 13.2016 16.1005 12.9672 15.8661C12.7328 15.6317 12.4149 15.5 12.0833 15.5Z" fill="white"/>
<path d="M18.75 11.3333H1.25C0.918479 11.3333 0.600537 11.465 0.366116 11.6994C0.131696 11.9338 0 12.2518 0 12.5833C0 12.9148 0.131696 13.2328 0.366116 13.4672C0.600537 13.7016 0.918479 13.8333 1.25 13.8333H18.75C19.0815 13.8333 19.3995 13.7016 19.6339 13.4672C19.8683 13.2328 20 12.9148 20 12.5833C20 12.2518 19.8683 11.9338 19.6339 11.6994C19.3995 11.465 19.0815 11.3333 18.75 11.3333Z" fill="white"/>
</g>
<defs>
<clipPath id="clip0_578_22">
<rect width="20" height="20" fill="white" transform="translate(0 0.5)"/>
</clipPath>
</defs>
</svg>
