<svg width="21" height="22" viewBox="0 0 21 22" fill="none" xmlns="http://www.w3.org/2000/svg">
<g id="fi-br-envelope" clip-path="url(#clip0_187_174)">
<path id="Vector" d="M16.1875 1.37476H4.8125C3.53657 1.37615 2.3133 1.88362 1.41108 2.78584C0.508866 3.68806 0.00138965 4.91133 0 6.18726L0 15.8123C0.00138965 17.0882 0.508866 18.3115 1.41108 19.2137C2.3133 20.1159 3.53657 20.6234 4.8125 20.6248H16.1875C17.4634 20.6234 18.6867 20.1159 19.5889 19.2137C20.4911 18.3115 20.9986 17.0882 21 15.8123V6.18726C20.9986 4.91133 20.4911 3.68806 19.5889 2.78584C18.6867 1.88362 17.4634 1.37615 16.1875 1.37476ZM16.1875 3.99976C16.7182 4.00152 17.2297 4.19799 17.6251 4.55188L11.9376 10.2394C11.5513 10.6083 11.0377 10.8142 10.5035 10.8142C9.96931 10.8142 9.45568 10.6083 9.06938 10.2394L3.38188 4.55188C3.77549 4.19958 4.28426 4.00323 4.8125 3.99976H16.1875ZM16.1875 17.9998H4.8125C4.23234 17.9998 3.67594 17.7693 3.2657 17.3591C2.85547 16.9488 2.625 16.3924 2.625 15.8123V7.51463L7.20913 12.0988C7.64116 12.531 8.15413 12.8739 8.71871 13.1078C9.28329 13.3417 9.88843 13.4621 10.4996 13.4621C11.1107 13.4621 11.7158 13.3417 12.2804 13.1078C12.845 12.8739 13.358 12.531 13.79 12.0988L18.375 7.51463V15.8123C18.375 16.3924 18.1445 16.9488 17.7343 17.3591C17.3241 17.7693 16.7677 17.9998 16.1875 17.9998Z" fill="white"/>
</g>
<defs>
<clipPath id="clip0_187_174">
<rect width="21" height="21" fill="white" transform="translate(0 0.5)"/>
</clipPath>
</defs>
</svg>
