<svg width="14" height="15" viewBox="0 0 14 15" fill="none" xmlns="http://www.w3.org/2000/svg">
<g id="fi-br-filter" clip-path="url(#clip0_14_616)">
<path id="Vector" d="M8.45835 14.5C8.29985 14.5002 8.1443 14.4571 8.0086 14.3752L5.09193 12.6252C4.9623 12.5475 4.855 12.4376 4.78048 12.3061C4.70596 12.1746 4.66675 12.0261 4.66668 11.875V8.86208L1.18651 4.60375C0.794659 4.15424 0.580203 3.57724 0.583347 2.98092C0.584119 2.32317 0.845748 1.69259 1.31084 1.2275C1.77594 0.762401 2.40652 0.500772 3.06426 0.5L10.9358 0.5C11.414 0.500174 11.882 0.63853 12.2834 0.898421C12.6849 1.15831 13.0027 1.52867 13.1986 1.96492C13.3945 2.40118 13.4602 2.88475 13.3877 3.35746C13.3153 3.83016 13.1078 4.27187 12.7902 4.62942L9.33335 8.8895V13.625C9.33335 13.8571 9.24116 14.0796 9.07707 14.2437C8.91297 14.4078 8.69041 14.5 8.45835 14.5ZM6.41668 11.3792L7.58335 12.0792V8.57917C7.5832 8.37824 7.6522 8.18339 7.77876 8.02733L11.4567 3.49658C11.5891 3.35725 11.6641 3.17311 11.6667 2.98092C11.6664 2.78716 11.5893 2.60143 11.4523 2.46442C11.3153 2.32741 11.1295 2.25031 10.9358 2.25H3.06426C2.92338 2.25014 2.78553 2.29096 2.66729 2.36755C2.54905 2.44415 2.45544 2.55326 2.39771 2.68177C2.33999 2.81028 2.3206 2.95273 2.34188 3.092C2.36316 3.23127 2.42421 3.36143 2.51768 3.46683L6.21951 7.99642C6.34709 8.1527 6.41674 8.34826 6.41668 8.55V11.3792Z" fill="#1A2641"/>
</g>
<defs>
<clipPath id="clip0_14_616">
<rect width="14" height="14" fill="white" transform="translate(0 0.5)"/>
</clipPath>
</defs>
</svg>
