<svg width="27" height="27" viewBox="0 0 27 27" fill="none" xmlns="http://www.w3.org/2000/svg">
<g id="fi-br-gas-pump" clip-path="url(#clip0_14_517)">
<path id="Vector" d="M26.4701 2.77988C26.1537 2.46352 25.7245 2.2858 25.2771 2.2858C24.8296 2.2858 24.4005 2.46352 24.084 2.77988L20.7439 6.11888C20.5872 6.27565 20.4629 6.46176 20.3782 6.66656C20.2935 6.87136 20.2499 7.09086 20.25 7.3125V19.6875C20.25 19.8367 20.1907 19.9798 20.0852 20.0852C19.9798 20.1907 19.8367 20.25 19.6875 20.25H18V6.1875C17.9979 4.54711 17.3454 2.97451 16.1854 1.81458C15.0255 0.654648 13.4529 0.00208379 11.8125 0L6.1875 0C4.54711 0.00208379 2.97451 0.654648 1.81458 1.81458C0.654648 2.97451 0.00208379 4.54711 0 6.1875L0 20.8125C0.00208379 22.4529 0.654648 24.0255 1.81458 25.1854C2.97451 26.3454 4.54711 26.9979 6.1875 27H11.8125C12.9543 26.9992 14.0736 26.6824 15.0466 26.0847C16.0195 25.4871 16.8081 24.6319 17.325 23.6138C17.3632 23.6138 17.4004 23.625 17.4375 23.625H19.6875C20.7318 23.625 21.7333 23.2102 22.4717 22.4717C23.2102 21.7333 23.625 20.7318 23.625 19.6875V8.01112L26.4701 5.166C26.7865 4.84955 26.9642 4.4204 26.9642 3.97294C26.9642 3.52547 26.7865 3.09633 26.4701 2.77988ZM6.1875 3.375H11.8125C12.5584 3.375 13.2738 3.67132 13.8012 4.19876C14.3287 4.72621 14.625 5.44158 14.625 6.1875V10.125H12.168C12.0349 9.75168 11.8364 9.40502 11.5819 9.10125L12.1343 8.17987C12.3495 7.79686 12.407 7.34498 12.2943 6.9203C12.1816 6.49562 11.9078 6.13162 11.5309 5.9057C11.1541 5.67977 10.704 5.60973 10.2763 5.71046C9.84865 5.8112 9.47714 6.07476 9.24075 6.44513L8.34075 7.94137C7.76932 8.05701 7.2377 8.31904 6.79794 8.70181C6.35818 9.08458 6.02534 9.57498 5.832 10.125H3.375V6.1875C3.375 5.44158 3.67132 4.72621 4.19876 4.19876C4.72621 3.67132 5.44158 3.375 6.1875 3.375ZM11.8125 23.625H6.1875C5.44158 23.625 4.72621 23.3287 4.19876 22.8012C3.67132 22.2738 3.375 21.5584 3.375 20.8125V13.5H14.625V20.8125C14.625 21.5584 14.3287 22.2738 13.8012 22.8012C13.2738 23.3287 12.5584 23.625 11.8125 23.625Z" fill="#3BCA8A"/>
</g>
<defs>
<clipPath id="clip0_14_517">
<rect width="27" height="27" fill="white"/>
</clipPath>
</defs>
</svg>
