<svg width="21" height="22" viewBox="0 0 21 22" fill="none" xmlns="http://www.w3.org/2000/svg">
<g id="fi-br-headphones" clip-path="url(#clip0_187_176)">
<path id="Vector" d="M18.375 10.6107V9.24487C18.375 7.15629 17.5453 5.15326 16.0685 3.67641C14.5916 2.19956 12.5886 1.36987 10.5 1.36987C8.41142 1.36987 6.40838 2.19956 4.93153 3.67641C3.45468 5.15326 2.625 7.15629 2.625 9.24487V10.6107C1.84065 10.9894 1.17858 11.5809 0.714415 12.3179C0.250244 13.0548 0.00268203 13.9074 0 14.7784L0 15.0969C0.00138956 16.3306 0.492088 17.5133 1.36444 18.3857C2.23679 19.258 3.41956 19.7487 4.65325 19.7501H4.8125C5.39266 19.7501 5.94906 19.5197 6.3593 19.1094C6.76953 18.6992 7 18.1428 7 17.5626V12.3126C6.9999 11.8085 6.82568 11.3199 6.50679 10.9294C6.18791 10.5389 5.74395 10.2706 5.25 10.1697V9.24487C5.25 7.85249 5.80312 6.51713 6.78769 5.53256C7.77226 4.548 9.10761 3.99487 10.5 3.99487C11.8924 3.99487 13.2277 4.548 14.2123 5.53256C15.1969 6.51713 15.75 7.85249 15.75 9.24487V10.1697C15.2561 10.2706 14.8121 10.5389 14.4932 10.9294C14.1743 11.3199 14.0001 11.8085 14 12.3126V17.5626C14 18.1428 14.2305 18.6992 14.6407 19.1094C15.0509 19.5197 15.6073 19.7501 16.1875 19.7501H16.3467C17.5804 19.7487 18.7632 19.258 19.6356 18.3857C20.5079 17.5133 20.9986 16.3306 21 15.0969V14.7784C20.9973 13.9074 20.7498 13.0548 20.2856 12.3179C19.8214 11.5809 19.1593 10.9894 18.375 10.6107ZM4.375 17.1059C3.88955 17.0381 3.445 16.797 3.12337 16.4271C2.80173 16.0573 2.62472 15.5835 2.625 15.0934V14.7749C2.62472 14.2847 2.80173 13.811 3.12337 13.4411C3.445 13.0712 3.88955 12.8302 4.375 12.7624V17.1059ZM18.375 15.0934C18.3753 15.5835 18.1983 16.0573 17.8766 16.4271C17.555 16.797 17.1104 17.0381 16.625 17.1059V12.7694C17.1104 12.8372 17.555 13.0782 17.8766 13.4481C18.1983 13.818 18.3753 14.2917 18.375 14.7819V15.0934Z" fill="white"/>
</g>
<defs>
<clipPath id="clip0_187_176">
<rect width="21" height="21" fill="white" transform="translate(0 0.5)"/>
</clipPath>
</defs>
</svg>
