<svg width="18" height="18" viewBox="0 0 18 18" fill="none" xmlns="http://www.w3.org/2000/svg">
<g id="fi-br-home" clip-path="url(#clip0_54_15)">
<g id="Group">
<path id="Vector" d="M17.231 6.52138L11.9165 1.20689C10.3044 -0.401046 7.6951 -0.401046 6.08302 1.20689L0.768526 6.52138C0.274652 7.01262 -0.00216767 7.68101 -0.000234079 8.37763V16.1611C0.00141826 17.1771 0.825057 18 1.84104 18.0009H16.1585C17.1745 18 17.9981 17.1771 17.9997 16.1611V8.37763C18.0017 7.68101 17.7249 7.01262 17.231 6.52138ZM15.7497 15.7509H11.9998V13.3644C11.9998 11.7829 10.7177 10.5008 9.13626 10.5008H8.86327C7.28181 10.5008 5.99977 11.7829 5.99977 13.3644V15.7509H2.24976V8.37763C2.25001 8.27817 2.28931 8.18283 2.35927 8.11213L7.67376 2.79764C8.40589 2.0653 9.59308 2.06516 10.3254 2.79729C10.3255 2.79739 10.3257 2.79753 10.3258 2.79764L15.6403 8.11213C15.7102 8.18283 15.7495 8.27817 15.7498 8.37763V15.7509H15.7497Z" fill="white"/>
</g>
</g>
<defs>
<clipPath id="clip0_54_15">
<rect width="18" height="18" fill="white"/>
</clipPath>
</defs>
</svg>
