<svg width="21" height="22" viewBox="0 0 21 22" fill="none" xmlns="http://www.w3.org/2000/svg">
<g id="icons8-instagram 1">
<path id="Vector" d="M7 3.125C4.58413 3.125 2.625 5.08413 2.625 7.5V14.5C2.625 16.9159 4.58413 18.875 7 18.875H14C16.4159 18.875 18.375 16.9159 18.375 14.5V7.5C18.375 5.08413 16.4159 3.125 14 3.125H7ZM15.75 4.875C16.233 4.875 16.625 5.267 16.625 5.75C16.625 6.233 16.233 6.625 15.75 6.625C15.267 6.625 14.875 6.233 14.875 5.75C14.875 5.267 15.267 4.875 15.75 4.875ZM10.5 6.625C12.9159 6.625 14.875 8.58413 14.875 11C14.875 13.4159 12.9159 15.375 10.5 15.375C8.08413 15.375 6.125 13.4159 6.125 11C6.125 8.58413 8.08413 6.625 10.5 6.625ZM10.5 8.375C9.80381 8.375 9.13613 8.65156 8.64384 9.14384C8.15156 9.63613 7.875 10.3038 7.875 11C7.875 11.6962 8.15156 12.3639 8.64384 12.8562C9.13613 13.3484 9.80381 13.625 10.5 13.625C11.1962 13.625 11.8639 13.3484 12.3562 12.8562C12.8484 12.3639 13.125 11.6962 13.125 11C13.125 10.3038 12.8484 9.63613 12.3562 9.14384C11.8639 8.65156 11.1962 8.375 10.5 8.375Z" fill="white"/>
</g>
</svg>
