<svg width="16" height="16" viewBox="0 0 16 16" fill="none" xmlns="http://www.w3.org/2000/svg">
<g clip-path="url(#clip0_646_84)">
<path d="M8 -4.76837e-06C6.14419 0.00228865 4.36504 0.740523 3.05279 2.05278C1.74053 3.36504 1.00229 5.14418 1 7C1 8.884 2.46667 11.5107 5.36067 14.806C5.6907 15.181 6.09684 15.4814 6.55205 15.6872C7.00727 15.893 7.5011 15.9994 8.00067 15.9994C8.50023 15.9994 8.99407 15.893 9.44928 15.6872C9.90449 15.4814 10.3106 15.181 10.6407 14.806C13.5333 11.5113 15 8.88466 15 7C14.9977 5.14418 14.2595 3.36504 12.9472 2.05278C11.635 0.740523 9.85581 0.00228865 8 -4.76837e-06V-4.76837e-06ZM9.13733 13.4873C8.99196 13.6436 8.81594 13.7682 8.62026 13.8535C8.42458 13.9387 8.21344 13.9827 8 13.9827C7.78656 13.9827 7.57542 13.9387 7.37974 13.8535C7.18406 13.7682 7.00804 13.6436 6.86267 13.4873C4.40733 10.6907 2.996 8.326 2.996 7.00066C2.996 5.67458 3.52278 4.40281 4.46047 3.46513C5.39815 2.52745 6.66992 2.00066 7.996 2.00066C9.32208 2.00066 10.5939 2.52745 11.5315 3.46513C12.4692 4.40281 12.996 5.67458 12.996 7.00066C13 8.326 11.5927 10.6907 9.13733 13.4873Z" fill="#1A2641"/>
<path d="M7.99998 4.03697C7.4247 4.03697 6.86234 4.20756 6.38401 4.52717C5.90568 4.84677 5.53287 5.30105 5.31272 5.83253C5.09257 6.36402 5.03497 6.94886 5.1472 7.51309C5.25943 8.07731 5.53645 8.59559 5.94324 9.00237C6.35002 9.40916 6.8683 9.68618 7.43252 9.79841C7.99675 9.91064 8.58159 9.85304 9.11307 9.63289C9.64456 9.41274 10.0988 9.03993 10.4184 8.5616C10.7381 8.08327 10.9086 7.52091 10.9086 6.94563C10.9078 6.17448 10.601 5.43516 10.0557 4.88987C9.51045 4.34458 8.77113 4.03785 7.99998 4.03697ZM7.99998 7.8543C7.82026 7.8543 7.64458 7.80101 7.49515 7.70116C7.34572 7.60132 7.22925 7.4594 7.16048 7.29337C7.0917 7.12733 7.07371 6.94463 7.10877 6.76836C7.14383 6.5921 7.23037 6.43019 7.35745 6.30311C7.48453 6.17603 7.64644 6.08949 7.8227 6.05443C7.99897 6.01937 8.18167 6.03736 8.34771 6.10614C8.51375 6.17491 8.65566 6.29138 8.75551 6.44081C8.85535 6.59023 8.90864 6.76592 8.90864 6.94563C8.90847 7.18657 8.81268 7.41759 8.64231 7.58796C8.47194 7.75833 8.24092 7.85412 7.99998 7.8543Z" fill="#1A2641"/>
</g>
<defs>
<clipPath id="clip0_646_84">
<rect width="16" height="16" fill="white"/>
</clipPath>
</defs>
</svg>
