<svg width="19" height="19" viewBox="0 0 19 19" fill="none" xmlns="http://www.w3.org/2000/svg">
<g id="fi-br-marker" clip-path="url(#clip0_55_30)">
<path id="Vector" d="M9.5 -7.62939e-06C7.29622 0.0027158 5.18349 0.879369 3.62518 2.43767C2.06688 3.99598 1.19022 6.10872 1.1875 8.31249C1.1875 10.5497 2.92917 13.6689 6.36579 17.5821C6.7577 18.0275 7.24 18.3842 7.78056 18.6286C8.32113 18.8729 8.90756 18.9993 9.50079 18.9993C10.094 18.9993 10.6805 18.8729 11.221 18.6286C11.7616 18.3842 12.2439 18.0275 12.6358 17.5821C16.0708 13.6697 17.8125 10.5505 17.8125 8.31249C17.8098 6.10872 16.9331 3.99598 15.3748 2.43767C13.8165 0.879369 11.7038 0.0027158 9.5 -7.62939e-06V-7.62939e-06ZM10.8506 16.0162C10.678 16.2018 10.4689 16.3498 10.2366 16.451C10.0042 16.5522 9.75346 16.6044 9.5 16.6044C9.24654 16.6044 8.99581 16.5522 8.76344 16.451C8.53107 16.3498 8.32205 16.2018 8.14942 16.0162C5.23371 12.6952 3.55775 9.88712 3.55775 8.31328C3.55775 6.73856 4.18331 5.22833 5.2968 4.11484C6.4103 3.00134 7.92053 2.37578 9.49525 2.37578C11.07 2.37578 12.5802 3.00134 13.6937 4.11484C14.8072 5.22833 15.4327 6.73856 15.4327 8.31328C15.4375 9.88712 13.7663 12.6952 10.8506 16.0162Z" fill="#1A2641"/>
<path id="Vector_2" d="M9.49994 4.7939C8.8168 4.7939 8.14899 4.99648 7.58098 5.37601C7.01296 5.75555 6.57025 6.29499 6.30882 6.92614C6.0474 7.55728 5.97899 8.25177 6.11227 8.92179C6.24554 9.59181 6.57451 10.2073 7.05757 10.6903C7.54062 11.1734 8.15607 11.5023 8.82609 11.6356C9.49611 11.7689 10.1906 11.7005 10.8217 11.4391C11.4529 11.1776 11.9923 10.7349 12.3719 10.1669C12.7514 9.59889 12.954 8.93109 12.954 8.24794C12.9529 7.33219 12.5887 6.45425 11.9412 5.80672C11.2936 5.15919 10.4157 4.79495 9.49994 4.7939ZM9.49994 9.32698C9.28653 9.32698 9.07791 9.2637 8.90046 9.14513C8.72301 9.02657 8.58471 8.85804 8.50304 8.66087C8.42137 8.4637 8.4 8.24674 8.44163 8.03743C8.48327 7.82812 8.58604 7.63585 8.73694 7.48494C8.88785 7.33404 9.08012 7.23127 9.28943 7.18963C9.49874 7.148 9.7157 7.16937 9.91287 7.25104C10.11 7.33271 10.2786 7.47101 10.3971 7.64846C10.5157 7.82591 10.579 8.03453 10.579 8.24794C10.5788 8.53406 10.465 8.80839 10.2627 9.01071C10.0604 9.21302 9.78606 9.32677 9.49994 9.32698Z" fill="#1A2641"/>
</g>
<defs>
<clipPath id="clip0_55_30">
<rect width="19" height="19" fill="white"/>
</clipPath>
</defs>
</svg>
