<svg width="16" height="16" viewBox="0 0 16 16" fill="none" xmlns="http://www.w3.org/2000/svg">
<path d="M12.3333 0.666559H3.66667C2.69453 0.667618 1.76252 1.05427 1.07511 1.74167C0.387707 2.42907 0.00105878 3.36109 0 4.33323L0 11.6666C0.00105878 12.6387 0.387707 13.5707 1.07511 14.2581C1.76252 14.9455 2.69453 15.3322 3.66667 15.3332H12.3333C13.3055 15.3322 14.2375 14.9455 14.9249 14.2581C15.6123 13.5707 15.9989 12.6387 16 11.6666V4.33323C15.9989 3.36109 15.6123 2.42907 14.9249 1.74167C14.2375 1.05427 13.3055 0.667618 12.3333 0.666559ZM12.3333 2.66656C12.7376 2.66791 13.1274 2.81759 13.4287 3.08723L9.09533 7.42056C8.80101 7.70167 8.40967 7.85853 8.00267 7.85853C7.59567 7.85853 7.20432 7.70167 6.91 7.42056L2.57667 3.08723C2.87656 2.81881 3.2642 2.66921 3.66667 2.66656H12.3333ZM12.3333 13.3332H3.66667C3.22464 13.3332 2.80072 13.1576 2.48816 12.8451C2.17559 12.5325 2 12.1086 2 11.6666V5.34456L5.49267 8.83723C5.82184 9.16654 6.21267 9.42778 6.64283 9.60601C7.07299 9.78424 7.53405 9.87598 7.99967 9.87598C8.46529 9.87598 8.92635 9.78424 9.35651 9.60601C9.78666 9.42778 10.1775 9.16654 10.5067 8.83723L14 5.34456V11.6666C14 12.1086 13.8244 12.5325 13.5118 12.8451C13.1993 13.1576 12.7754 13.3332 12.3333 13.3332Z" fill="#1A2641"/>
</svg>
