<svg width="19" height="19" viewBox="0 0 19 19" fill="none" xmlns="http://www.w3.org/2000/svg">
<g id="fi-br-paper-plane" clip-path="url(#clip0_190_284)">
<g id="Group">
<path id="Vector" d="M18.2079 0.793615C17.5532 0.129825 16.5986 -0.142333 15.6924 0.0764691L3.5911 2.61973C1.29303 2.95978 -0.294247 5.09842 0.0458111 7.39646C0.178013 8.28989 0.594283 9.11705 1.23303 9.75557L2.53037 11.0537C2.59111 11.1137 2.62506 11.1956 2.62458 11.2809V13.6746C2.62632 15.1637 3.83305 16.3704 5.32219 16.3722H7.71584C7.80129 16.3722 7.88329 16.4061 7.94381 16.4664L9.24115 17.7637C10.0256 18.5534 11.0925 18.9978 12.2055 18.9986C12.665 18.9982 13.1213 18.923 13.5567 18.7761C15.0591 18.2772 16.1508 16.9725 16.377 15.4057L18.9203 3.34244C19.1487 2.42664 18.8781 1.45822 18.2079 0.793615ZM2.47104 6.19674C2.68617 5.53209 3.2667 5.05215 3.95995 4.96589C3.98793 4.96218 4.01561 4.95743 4.04306 4.95164L14.5881 2.73531L4.99927 12.3186V11.2809C5.00102 10.565 4.71591 9.87824 4.20773 9.37403L2.91195 8.07669C2.41286 7.58855 2.241 6.85589 2.47104 6.19674ZM14.0451 14.9577C14.0388 14.9854 14.0348 15.0131 14.0309 15.0408C13.8934 16.0434 12.9692 16.7448 11.9665 16.6073C11.5704 16.553 11.2029 16.3707 10.9201 16.088L9.62351 14.7914C9.11904 14.2831 8.43202 13.998 7.71588 13.9999H6.67815L16.2646 4.41103L14.0451 14.9577Z" fill="#0432FF"/>
</g>
</g>
<defs>
<clipPath id="clip0_190_284">
<rect width="19" height="19" fill="white"/>
</clipPath>
</defs>
</svg>
