<svg width="26" height="25" viewBox="0 0 26 25" fill="none" xmlns="http://www.w3.org/2000/svg">
<path d="M26 12.5C26 15.8152 24.6304 18.9946 22.1924 21.3388C19.7544 23.683 16.4478 25 13 25C9.55219 25 6.24558 23.683 3.80761 21.3388C1.36964 18.9946 0 15.8152 0 12.5C0 12.0856 0.171205 11.6882 0.475951 11.3951C0.780698 11.1021 1.19402 10.9375 1.625 10.9375C2.05598 10.9375 2.4693 11.1021 2.77405 11.3951C3.0788 11.6882 3.25 12.0856 3.25 12.5C3.25 14.3542 3.82183 16.1668 4.89317 17.7085C5.96452 19.2502 7.48726 20.4518 9.26884 21.1614C11.0504 21.8709 13.0108 22.0566 14.9021 21.6949C16.7934 21.3331 18.5307 20.4402 19.8943 19.1291C21.2579 17.818 22.1865 16.1475 22.5627 14.329C22.9389 12.5104 22.7458 10.6254 22.0078 8.91234C21.2699 7.19929 20.0202 5.73511 18.4168 4.70497C16.8134 3.67483 14.9284 3.125 13 3.125C12.569 3.125 12.1557 2.96038 11.851 2.66735C11.5462 2.37433 11.375 1.9769 11.375 1.5625C11.375 1.1481 11.5462 0.750671 11.851 0.457646C12.1557 0.16462 12.569 0 13 0C16.4467 0.00358446 19.7511 1.3217 22.1883 3.66512C24.6254 6.00855 25.9963 9.18589 26 12.5ZM7.58333 12.5C7.58333 12.9144 7.75454 13.3118 8.05929 13.6049C8.36403 13.8979 8.77736 14.0625 9.20833 14.0625H11.5808C11.9924 14.4108 12.5265 14.5954 13.0745 14.5786C13.6226 14.5618 14.1434 14.345 14.5311 13.9722C14.9188 13.5994 15.1443 13.0986 15.1618 12.5717C15.1792 12.0447 14.9873 11.5312 14.625 11.1354V6.77083C14.625 6.35643 14.4538 5.959 14.149 5.66598C13.8443 5.37295 13.431 5.20833 13 5.20833C12.569 5.20833 12.1557 5.37295 11.851 5.66598C11.5462 5.959 11.375 6.35643 11.375 6.77083V10.9375H9.20833C8.77736 10.9375 8.36403 11.1021 8.05929 11.3951C7.75454 11.6882 7.58333 12.0856 7.58333 12.5ZM7.30167 5.09792C7.62306 5.09792 7.93724 5.00628 8.20447 4.83459C8.4717 4.6629 8.67998 4.41887 8.80297 4.13336C8.92596 3.84785 8.95814 3.53368 8.89544 3.23059C8.83274 2.92749 8.67798 2.64908 8.45072 2.43056C8.22346 2.21204 7.93391 2.06323 7.61869 2.00294C7.30347 1.94265 6.97674 1.97359 6.67981 2.09185C6.38288 2.21012 6.12909 2.41039 5.95053 2.66734C5.77197 2.92429 5.67667 3.22638 5.67667 3.53542C5.67667 3.94982 5.84787 4.34725 6.15262 4.64027C6.45737 4.9333 6.87069 5.09792 7.30167 5.09792ZM3.15575 9.11458C3.47714 9.11458 3.79132 9.02294 4.05855 8.85125C4.32578 8.67956 4.53406 8.43554 4.65705 8.15003C4.78005 7.86452 4.81223 7.55035 4.74953 7.24725C4.68682 6.94416 4.53206 6.66575 4.3048 6.44723C4.07754 6.22871 3.78799 6.0799 3.47277 6.01961C3.15755 5.95932 2.83082 5.99026 2.53389 6.10852C2.23696 6.22678 1.98317 6.42705 1.80461 6.684C1.62605 6.94096 1.53075 7.24305 1.53075 7.55208C1.53075 7.96648 1.70195 8.36391 2.0067 8.65694C2.31145 8.94996 2.72477 9.11458 3.15575 9.11458Z" fill="#1639FF"/>
</svg>
