<svg width="18" height="18" viewBox="0 0 18 18" fill="none" xmlns="http://www.w3.org/2000/svg">
<g id="fi-br-gas-pump" clip-path="url(#clip0_54_20)">
<path id="Vector" d="M17.6467 1.85325C17.4358 1.64234 17.1497 1.52387 16.8514 1.52387C16.5531 1.52387 16.267 1.64234 16.056 1.85325L13.8292 4.07925C13.7248 4.18377 13.642 4.30784 13.5855 4.44437C13.529 4.58091 13.4999 4.72724 13.5 4.875V13.125C13.5 13.2245 13.4605 13.3198 13.3902 13.3902C13.3198 13.4605 13.2245 13.5 13.125 13.5H12V4.125C11.9986 3.03141 11.5636 1.98301 10.7903 1.20972C10.017 0.436432 8.96859 0.00138919 7.875 0L4.125 0C3.03141 0.00138919 1.98301 0.436432 1.20972 1.20972C0.436432 1.98301 0.00138919 3.03141 0 4.125L0 13.875C0.00138919 14.9686 0.436432 16.017 1.20972 16.7903C1.98301 17.5636 3.03141 17.9986 4.125 18H7.875C8.63622 17.9994 9.38243 17.7882 10.031 17.3898C10.6797 16.9914 11.2054 16.4212 11.55 15.7425C11.5755 15.7425 11.6003 15.75 11.625 15.75H13.125C13.8212 15.75 14.4889 15.4734 14.9812 14.9812C15.4734 14.4889 15.75 13.8212 15.75 13.125V5.34075L17.6467 3.444C17.8577 3.23303 17.9761 2.94693 17.9761 2.64863C17.9761 2.35032 17.8577 2.06422 17.6467 1.85325ZM4.125 2.25H7.875C8.37228 2.25 8.84919 2.44754 9.20082 2.79917C9.55246 3.15081 9.75 3.62772 9.75 4.125V6.75H8.112C8.02327 6.50112 7.89096 6.27002 7.72125 6.0675L8.0895 5.45325C8.23303 5.19791 8.2713 4.89665 8.19619 4.61353C8.12108 4.33041 7.93851 4.08775 7.68728 3.93713C7.43606 3.78651 7.136 3.73982 6.85088 3.80697C6.56577 3.87413 6.31809 4.04984 6.1605 4.29675L5.5605 5.29425C5.17955 5.37134 4.82514 5.54603 4.53196 5.80121C4.23879 6.05639 4.01689 6.38332 3.888 6.75H2.25V4.125C2.25 3.62772 2.44754 3.15081 2.79917 2.79917C3.15081 2.44754 3.62772 2.25 4.125 2.25ZM7.875 15.75H4.125C3.62772 15.75 3.15081 15.5525 2.79917 15.2008C2.44754 14.8492 2.25 14.3723 2.25 13.875V9H9.75V13.875C9.75 14.3723 9.55246 14.8492 9.20082 15.2008C8.84919 15.5525 8.37228 15.75 7.875 15.75Z" fill="white"/>
</g>
<defs>
<clipPath id="clip0_54_20">
<rect width="18" height="18" fill="white"/>
</clipPath>
</defs>
</svg>
