<svg width="18" height="18" viewBox="0 0 18 18" fill="none" xmlns="http://www.w3.org/2000/svg">
<g id="fi-br-resize" clip-path="url(#clip0_55_18)">
<path id="Vector" d="M13.875 0H7.875C6.78141 0.00138919 5.73301 0.436432 4.95972 1.20972C4.18643 1.98301 3.75139 3.03141 3.75 4.125V7.51875C2.7259 7.61343 1.77396 8.08679 1.08042 8.84623C0.386869 9.60566 0.00160846 10.5965 0 11.625L0 13.875C0.00138919 14.9686 0.436432 16.017 1.20972 16.7903C1.98301 17.5636 3.03141 17.9986 4.125 18H6.375C7.40347 17.9984 8.39434 17.6131 9.15377 16.9196C9.91321 16.226 10.3866 15.2741 10.4813 14.25H13.875C14.9686 14.2486 16.017 13.8136 16.7903 13.0403C17.5636 12.267 17.9986 11.2186 18 10.125V4.125C17.9986 3.03141 17.5636 1.98301 16.7903 1.20972C16.017 0.436432 14.9686 0.00138919 13.875 0V0ZM6.375 15.75H4.125C3.62772 15.75 3.15081 15.5525 2.79917 15.2008C2.44754 14.8492 2.25 14.3723 2.25 13.875V11.625C2.25008 11.1929 2.39942 10.7741 2.67275 10.4394C2.94607 10.1047 3.32661 9.87467 3.75 9.78825V10.125C3.75139 11.2186 4.18643 12.267 4.95972 13.0403C5.73301 13.8136 6.78141 14.2486 7.875 14.25H8.21175C8.12533 14.6734 7.89532 15.0539 7.56063 15.3273C7.22594 15.6006 6.80712 15.7499 6.375 15.75ZM15.75 10.125C15.75 10.6223 15.5525 11.0992 15.2008 11.4508C14.8492 11.8025 14.3723 12 13.875 12H10.5V11.625C10.5006 10.9215 10.3197 10.2297 9.975 9.6165L12 7.5915V8.625C12 8.92337 12.1185 9.20952 12.3295 9.4205C12.5405 9.63147 12.8266 9.75 13.125 9.75C13.4234 9.75 13.7095 9.63147 13.9205 9.4205C14.1315 9.20952 14.25 8.92337 14.25 8.625V6.375C14.25 5.67881 13.9734 5.01113 13.4812 4.51884C12.9889 4.02656 12.3212 3.75 11.625 3.75H9.375C9.07663 3.75 8.79048 3.86853 8.5795 4.0795C8.36853 4.29048 8.25 4.57663 8.25 4.875C8.25 5.17337 8.36853 5.45952 8.5795 5.6705C8.79048 5.88147 9.07663 6 9.375 6H10.4093L8.38425 8.025C7.77079 7.68013 7.07875 7.49931 6.375 7.5H6V4.125C6 3.62772 6.19754 3.15081 6.54917 2.79917C6.90081 2.44754 7.37772 2.25 7.875 2.25H13.875C14.3723 2.25 14.8492 2.44754 15.2008 2.79917C15.5525 3.15081 15.75 3.62772 15.75 4.125V10.125Z" fill="#0432FF"/>
</g>
<defs>
<clipPath id="clip0_55_18">
<rect width="18" height="18" fill="white"/>
</clipPath>
</defs>
</svg>
