<svg width="30" height="30" viewBox="0 0 30 30" fill="none" xmlns="http://www.w3.org/2000/svg">
<g id="fi-br-time-quarter-to" clip-path="url(#clip0_7_962)">
<path id="Vector" d="M29.8572 15C29.8572 18.9404 28.2919 22.7193 25.5056 25.5056C22.7194 28.2918 18.9404 29.8571 15 29.8571C11.0597 29.8571 7.28069 28.2918 4.49444 25.5056C1.70818 22.7193 0.142883 18.9404 0.142883 15C0.142883 14.5075 0.338546 14.0351 0.686828 13.6868C1.03511 13.3385 1.50748 13.1429 2.00003 13.1429C2.49257 13.1429 2.96494 13.3385 3.31322 13.6868C3.66151 14.0351 3.85717 14.5075 3.85717 15C3.85717 17.2039 4.51069 19.3582 5.73508 21.1906C6.95947 23.0231 8.69975 24.4513 10.7358 25.2947C12.7719 26.138 15.0124 26.3587 17.1739 25.9288C19.3354 25.4988 21.3209 24.4375 22.8792 22.8792C24.4376 21.3208 25.4988 19.3354 25.9288 17.1739C26.3587 15.0124 26.1381 12.7719 25.2947 10.7358C24.4513 8.69973 23.0231 6.95945 21.1907 5.73506C19.3582 4.51066 17.2039 3.85715 15 3.85715C14.5075 3.85715 14.0351 3.66148 13.6868 3.3132C13.3385 2.96492 13.1429 2.49255 13.1429 2C13.1429 1.50746 13.3385 1.03509 13.6868 0.686805C14.0351 0.338523 14.5075 0.14286 15 0.14286C18.9391 0.147121 22.7156 1.71379 25.5009 4.49912C28.2862 7.28445 29.8529 11.061 29.8572 15ZM8.80955 15C8.80955 15.4925 9.00521 15.9649 9.35349 16.3132C9.70178 16.6615 10.1741 16.8571 10.6667 16.8571H13.3781C13.8485 17.2712 14.4589 17.4905 15.0852 17.4706C15.7115 17.4506 16.3068 17.1929 16.7499 16.7498C17.1929 16.3067 17.4507 15.7115 17.4706 15.0852C17.4905 14.4589 17.2712 13.8485 16.8572 13.3781V8.19048C16.8572 7.69793 16.6615 7.22556 16.3132 6.87728C15.9649 6.529 15.4926 6.33334 15 6.33334C14.5075 6.33334 14.0351 6.529 13.6868 6.87728C13.3385 7.22556 13.1429 7.69793 13.1429 8.19048V13.1429H10.6667C10.1741 13.1429 9.70178 13.3385 9.35349 13.6868C9.00521 14.0351 8.80955 14.5075 8.80955 15ZM8.48764 6.2021C8.85495 6.2021 9.21401 6.09318 9.51942 5.88911C9.82482 5.68505 10.0629 5.395 10.2034 5.05565C10.344 4.7163 10.3808 4.3429 10.3091 3.98265C10.2374 3.62239 10.0606 3.29148 9.80084 3.03176C9.54112 2.77203 9.21021 2.59516 8.84996 2.5235C8.48971 2.45184 8.1163 2.48862 7.77695 2.62918C7.4376 2.76974 7.14755 3.00778 6.94349 3.31318C6.73942 3.61859 6.6305 3.97765 6.6305 4.34496C6.6305 4.8375 6.82616 5.30987 7.17445 5.65815C7.52273 6.00644 7.9951 6.2021 8.48764 6.2021ZM3.74945 10.9762C4.11676 10.9762 4.47582 10.8673 4.78123 10.6632C5.08663 10.4591 5.32467 10.1691 5.46523 9.82975C5.60579 9.4904 5.64257 9.11699 5.57091 8.75674C5.49925 8.39649 5.32238 8.06558 5.06265 7.80585C4.80293 7.54613 4.47202 7.36925 4.11177 7.29759C3.75151 7.22593 3.37811 7.26271 3.03876 7.40327C2.69941 7.54384 2.40936 7.78187 2.2053 8.08728C2.00123 8.39268 1.89231 8.75174 1.89231 9.11905C1.89231 9.6116 2.08797 10.084 2.43626 10.4322C2.78454 10.7805 3.25691 10.9762 3.74945 10.9762Z" fill="#1639FF"/>
</g>
<defs>
<clipPath id="clip0_7_962">
<rect width="29.7143" height="29.7143" fill="white" transform="translate(0.142883 0.14286)"/>
</clipPath>
</defs>
</svg>
