<svg width="26" height="26" viewBox="0 0 26 26" fill="none" xmlns="http://www.w3.org/2000/svg">
<g id="fi-br-tornado" clip-path="url(#clip0_6_889)">
<path id="Vector" d="M16.0952 25.381H12.4841C12.0737 25.381 11.68 25.2179 11.3898 24.9277C11.0996 24.6374 10.9365 24.2438 10.9365 23.8333C10.9365 23.4229 11.0996 23.0292 11.3898 22.739C11.68 22.4488 12.0737 22.2857 12.4841 22.2857H16.0952C16.3689 22.2857 16.6313 22.177 16.8248 21.9835C17.0183 21.79 17.127 21.5276 17.127 21.254C17.127 20.9803 17.0183 20.7179 16.8248 20.5244C16.6313 20.3309 16.3689 20.2222 16.0952 20.2222H7.84127C6.74673 20.2222 5.69701 19.7874 4.92305 19.0135C4.14909 18.2395 3.71429 17.1898 3.71429 16.0952C3.71429 15.0007 4.14909 13.951 4.92305 13.177C5.69701 12.4031 6.74673 11.9683 7.84127 11.9683H21.254C21.5276 11.9683 21.79 11.8596 21.9835 11.6661C22.177 11.4726 22.2857 11.2101 22.2857 10.9365C22.2857 10.6629 22.177 10.4004 21.9835 10.207C21.79 10.0135 21.5276 9.90476 21.254 9.90476H5.26191C4.03054 9.90476 2.84962 9.41561 1.97891 8.5449C1.10821 7.6742 0.619049 6.49327 0.619049 5.26191C0.619049 4.03054 1.10821 2.84962 1.97891 1.97891C2.84962 1.10821 4.03054 0.619049 5.26191 0.619049L23.8333 0.619049C24.2438 0.619049 24.6374 0.782101 24.9277 1.07234C25.2179 1.36257 25.381 1.75621 25.381 2.16667C25.381 2.57712 25.2179 2.97077 24.9277 3.261C24.6374 3.55123 24.2438 3.71429 23.8333 3.71429H5.26191C4.85145 3.71429 4.45781 3.87734 4.16757 4.16757C3.87734 4.45781 3.71429 4.85145 3.71429 5.26191C3.71429 5.67236 3.87734 6.066 4.16757 6.35624C4.45781 6.64647 4.85145 6.80953 5.26191 6.80953H21.254C22.3485 6.80953 23.3982 7.24433 24.1722 8.01829C24.9461 8.79225 25.381 9.84196 25.381 10.9365C25.381 12.0311 24.9461 13.0808 24.1722 13.8547C23.3982 14.6287 22.3485 15.0635 21.254 15.0635H7.84127C7.56764 15.0635 7.30521 15.1722 7.11172 15.3657C6.91823 15.5592 6.80953 15.8216 6.80953 16.0952C6.80953 16.3689 6.91823 16.6313 7.11172 16.8248C7.30521 17.0183 7.56764 17.127 7.84127 17.127H16.0952C17.1898 17.127 18.2395 17.5618 19.0135 18.3358C19.7874 19.1097 20.2222 20.1594 20.2222 21.254C20.2222 22.3485 19.7874 23.3982 19.0135 24.1722C18.2395 24.9461 17.1898 25.381 16.0952 25.381Z" fill="#103BFF"/>
</g>
<defs>
<clipPath id="clip0_6_889">
<rect width="24.7619" height="24.7619" fill="white" transform="translate(0.619049 0.619049)"/>
</clipPath>
</defs>
</svg>
