<svg width="14" height="10" viewBox="0 0 14 10" fill="none" xmlns="http://www.w3.org/2000/svg">
<path id="Vector" d="M12.8669 0.26622H10.5357C10.3863 0.266252 10.2403 0.310574 10.1161 0.393582C9.99188 0.47659 9.89509 0.594557 9.83792 0.732571C9.78076 0.870585 9.7658 1.02245 9.79494 1.16896C9.82407 1.31548 9.89599 1.45006 10.0016 1.55571L10.5553 2.10867L7.84566 4.81683C7.81057 4.852 7.76889 4.87991 7.723 4.89895C7.67712 4.91799 7.62792 4.9278 7.57824 4.9278C7.52856 4.9278 7.47937 4.91799 7.43348 4.89895C7.38759 4.87991 7.34591 4.852 7.31083 4.81683L7.18241 4.68841C6.67883 4.20734 6.00919 3.93889 5.31276 3.93889C4.61633 3.93889 3.9467 4.20734 3.44312 4.68841L0.345928 7.7856C0.237703 7.89013 0.15138 8.01516 0.0919943 8.15341C0.0326087 8.29165 0.00135019 8.44034 4.27832e-05 8.5908C-0.00126463 8.74125 0.0274049 8.89046 0.0843791 9.02972C0.141353 9.16897 0.225491 9.29549 0.331882 9.40188C0.438274 9.50827 0.564789 9.59241 0.704045 9.64938C0.843301 9.70636 0.992509 9.73503 1.14296 9.73372C1.29342 9.73241 1.44211 9.70115 1.58035 9.64177C1.7186 9.58238 1.84363 9.49606 1.94816 9.38784L5.04535 6.29064C5.08043 6.25547 5.12211 6.22756 5.168 6.20852C5.21389 6.18948 5.26308 6.17968 5.31276 6.17968C5.36244 6.17968 5.41164 6.18948 5.45752 6.20852C5.50341 6.22756 5.54509 6.25547 5.58018 6.29064L5.7086 6.41906C6.21235 6.89979 6.88192 7.168 7.57824 7.168C8.27457 7.168 8.94413 6.89979 9.44789 6.41906L12.1568 3.71091L12.7098 4.26462C12.8154 4.3705 12.95 4.44264 13.0967 4.47193C13.2433 4.50121 13.3953 4.48631 13.5335 4.42912C13.6717 4.37193 13.7898 4.27501 13.8728 4.15065C13.9559 4.02629 14.0001 3.88008 14 3.73055V1.39934C14 1.09882 13.8806 0.810605 13.6681 0.598103C13.4556 0.385602 13.1674 0.26622 12.8669 0.26622Z" fill="#1639FF"/>
</svg>
