<svg width="21" height="22" viewBox="0 0 21 22" fill="none" xmlns="http://www.w3.org/2000/svg">
<g id="icons8-youtube 1">
<path id="Vector" d="M18.8574 6.59003C18.69 5.66636 17.8927 4.9937 16.9674 4.7837C15.5827 4.49003 13.02 4.28003 10.2474 4.28003C7.47634 4.28003 4.87267 4.49003 3.48634 4.7837C2.56267 4.9937 1.76368 5.6237 1.59634 6.59003C1.42735 7.64003 1.26001 9.11003 1.26001 11C1.26001 12.89 1.42735 14.36 1.63735 15.41C1.80634 16.3337 2.60368 17.0064 3.52735 17.2164C4.99735 17.51 7.51735 17.72 10.29 17.72C13.0627 17.72 15.5827 17.51 17.0527 17.2164C17.9763 17.0064 18.7737 16.3764 18.9427 15.41C19.11 14.36 19.32 12.8474 19.3627 11C19.2774 9.11003 19.0674 7.64003 18.8574 6.59003ZM7.98001 13.94V8.06003L13.1037 11L7.98001 13.94Z" fill="white"/>
</g>
</svg>
